# xmcd CD database file
#
# Track frame offsets:
#	150
#	83806
#	109833
#
# Disc length: 2676 seconds
#
# Revision: 0
# Processed by: cddbd v1.5.1PL0 Copyright (c) Steve Scherf et al.
# Submitted via: CDex 1.51
#
DISCID=1b0a7203
DTITLE=kneale.kirk.peters - btwxt/bdvld
DYEAR=2004
DGENRE=Jazz
TTITLE0=btwxt
TTITLE1=btwxt/bdvld
TTITLE2=bdvld
EXTD=YEAR: 2004
EXTT0=
EXTT1=
EXTT2=
PLAYORDER=
